<svg width="1298" height="207" viewBox="0 0 1298 207" fill="none" xmlns="http://www.w3.org/2000/svg">
<path d="M0 206.8C0 137.9 0 68.9 0 0C432.6 0 865.3 0 1297.9 0C1297.9 68.9 1297.9 137.9 1297.9 206.8C865.3 206.8 432.7 206.8 0 206.8ZM1137.4 134.6C1138.2 134.3 1138.9 134 1139.7 133.7C1140 131.9 1140.6 130.2 1140.7 128.4C1140.8 120.5 1140.6 112.6 1140.9 104.6C1141 103 1142.6 101.5 1143.5 100C1149.1 107.9 1155.8 115.4 1160.2 124C1164.4 132.2 1170.5 132.2 1177.6 131.6C1178.8 131.5 1180.5 131 1181.1 130.2C1185.6 123.9 1189.7 117.4 1194.1 111.1C1198 105.4 1202.1 99.9 1206.1 94.3C1206.4 94.4 1206.8 94.5 1207.1 94.6C1207.1 107.2 1207.1 119.8 1207.1 132.6C1214 132.6 1220.4 132.6 1226.9 132.6C1226.9 113.3 1226.9 94.3 1226.8 75.2C1226.8 74.2 1225.2 72.4 1224.3 72.4C1217.4 72.3 1210.5 72.4 1203.6 73C1201.9 73.1 1199.8 74.7 1198.7 76.2C1193.9 82.8 1189.4 89.7 1184.7 96.5C1180.9 101.9 1177 107.1 1172.7 113C1164.2 100.9 1156.2 89.3 1148 77.8C1146.7 76 1144.9 73.5 1143.1 73.4C1135.2 72.9 1127.4 73.2 1119 73.2C1119 92.5 1119 111.2 1119 130C1119 130.4 1119.4 130.9 1119.6 131.3V131.4C1119.5 131.9 1119.4 132.4 1119.2 132.8C1120.2 133.2 1121.3 133.5 1122.3 133.9C1126.4 133.9 1130.4 134 1134.5 134C1135.6 134.3 1136.5 134.4 1137.4 134.6ZM1003.6 120.7C1011.3 132.1 1033.1 138.4 1047.6 133.4C1049.9 133.2 1052.2 132.9 1054.4 132.7C1063 132.8 1070.5 129.5 1076.8 124.2C1079.8 121.7 1082.5 117 1082.7 113.2C1083.4 100.5 1082.9 87.7 1082.8 74.9C1082.2 74.3 1081.7 73.2 1081.1 73.1C1075.1 73 1069.1 72.9 1063 73.1C1062.4 73.1 1061.9 74.3 1061.4 74.9C1061.4 75.6 1061.4 76.2 1061.4 76.9C1061.4 78.9 1061.4 81 1061.4 83C1061.3 91.5 1061.5 100.1 1061 108.6C1060.8 111.7 1059.2 114.8 1058.2 117.9C1056.7 118.6 1055.1 119.3 1053.6 120C1051.9 116.9 1050.6 113.4 1048.5 110.7C1041.1 101.4 1033.5 92.3 1025.9 83.3C1024.9 82.1 1022.9 81.7 1021.4 80.9C1021.2 78.5 1021 76 1020.8 73.5C1013.6 73.5 1006.8 73.5 1000.3 73.5C1000.3 86.4 1000.3 98.9 1000.3 111.4C1001.1 113.9 1002 116.4 1002.8 118.9C1003.1 119.6 1003.3 120.2 1003.6 120.7ZM893.3 109.4C893.3 111 893.3 112.6 893.2 114.2C891.4 114.4 889.7 114.7 886.6 115.1C888.3 118 889.1 120.8 891 122.2C895.5 125.5 900.2 129.4 905.4 130.7C924.7 135.5 944.1 137.7 962 125.6C962.8 125 963.6 124.4 964.3 123.8C969.4 120.5 969.3 110.6 965.2 106.7C962.6 104.3 961.5 100.1 960.2 96.5C959 93.2 962 92.5 964.2 91.3C964.7 91 964.8 89.8 965.1 89.1C964.6 87.1 964.8 84.6 963.6 83.3C958.9 78.1 953.3 73.9 946.1 73.3C936.7 72.6 927.3 72.3 917.9 72.6C909.9 72.8 902.7 75.9 896.6 81.3C889.5 87.6 889.4 93.7 896.5 99.9C894.9 102.7 890.4 104.8 893.3 109.4ZM854.7 132.4C855.1 131.2 855.4 129.9 855.8 128.7C855.8 110.2 855.8 91.8 855.8 73.1C848.7 73.1 842.1 73.1 835.6 73.1C835 73.8 834.5 74.5 833.9 75.2C833.8 75.2 833.6 75.1 833.5 75.1C833.6 75.2 833.7 75.4 833.8 75.5C833.9 81.4 833.9 87.2 834 93.1C834 95.2 834 97.3 834 99.4C834 103.4 834 107.3 834 111.3C833.3 113.8 832.5 116.2 831.7 119.1C826.3 118.9 824.1 114.3 821.6 110.6C818.9 106.5 815.4 104 811.2 101.5C803.9 97.1 796.2 97 788.3 97.2C785.4 97.3 782.7 97.2 782.8 93.2C787 93.2 791.2 93.4 795.4 93.2C797.1 93.1 798.7 92.3 800.4 91.8C799.7 90.2 799.5 87.8 798.3 87C792.2 82.7 786.3 77.8 779.5 74.9C769.4 70.6 758.4 71.3 747.5 72.1C735.8 73 725.7 77.4 717.7 86C715.1 88.8 713.8 92.8 711.9 96.2C711.8 96.5 711.7 96.8 711.6 97.1C711.2 98.7 710.6 100.3 710.6 101.9C710.1 111.7 714.6 119.2 722.2 124.9C722.4 126.7 721.9 129.4 722.9 130.3C727.8 134.3 733.1 137.7 738.2 141.4C744 145.6 750.4 149.2 755.2 154.3C759.8 159.2 764.7 163 771.1 164C776.9 164.9 782.7 164.9 788.6 165.2C791.1 165.3 793.7 165.9 796 165.3C799.5 164.4 802.8 162.7 806.1 161.1C811.6 158.4 817.6 156.3 822.4 152.6C825.6 150.2 827.3 145.7 829.3 142C831.1 138.7 832.4 135.1 833.9 131.6C840.5 131.9 847.1 132.2 853.7 132.5L854.1 132.7L854.7 132.4ZM485.8 142.1C486.4 141.9 487 141.8 487.6 141.6C491 141.8 492.7 139.4 491.2 136.3C490.6 135 489.7 133.9 488.9 132.7C495.7 132.7 502.6 132.7 509.6 132.7C509.6 112.6 509.6 93 509.6 73C502 73 494.7 72.7 487.5 73.2C485.1 73.4 482.1 75.1 480.7 77.1C472.3 89.2 464.4 101.6 456 114.3C455.3 112.8 455 112 454.6 111.4C446.3 99.3 438.1 87.3 429.7 75.3C429 74.3 427.7 73.1 426.6 73C418.4 72.8 410.1 72.9 402 72.9C402 92.9 402 112.6 402 132.4C408.7 132.4 415.1 132.4 422.3 132.4C422.3 119.6 422.3 107 422.3 93.3C430.7 105.4 438.5 116.1 445.8 127.2C448.3 131 450.6 132.7 455.3 132.7C461.1 132.7 466 132.5 468 126C468.2 125.4 468.9 125 469.3 124.6C470.9 123.2 472.8 122.2 473.9 120.5C477.9 114.4 481.6 108.2 485.5 102C485.9 102.1 486.3 102.2 486.7 102.4C486.7 105.3 486.5 108.3 486.8 111.2C487.3 116.2 485.9 119.3 480.9 121.9C474.8 125 471.1 130.6 471.7 138C472 141.5 473.7 143.8 477.8 142.9C480.4 142.5 483.1 142.3 485.8 142.1ZM613.3 133.6C618 133.4 617.8 129.1 619.1 126.3C620.8 122.7 622.9 121.1 626.9 121.5C630.2 121.8 633.7 121.9 637 121.4C645.1 120.1 652.8 120.6 660.2 124.6C663.6 135.1 671.8 135.4 680.7 134.3C681.4 134.2 682.1 134.4 682.7 134.2C683.9 133.8 685 133.3 686.5 132.6C682.4 125.4 678.6 118.7 674.8 112C667.2 98.7 659.6 85.5 652.1 72.2C651 71.4 650 70 648.9 70C642.4 69.8 635.8 69.8 629.3 70C628.2 70 627.1 71.3 625.9 72.1C625.6 72.4 625.3 72.7 625 73C623.1 74.8 620.7 76.2 619.4 78.3C615.4 84.9 611.8 91.7 608.1 98.4C607.7 97.9 607.2 97.4 606.8 96.9C604.9 97.1 601.9 96.7 601.3 97.7C599.1 101.4 600.6 104.6 604.3 106.6C600.8 113.9 597.3 120.8 594 127.8C591.7 132.6 593.6 135.6 599 135.8C602.7 135.9 606.4 136 610.1 135.7C611.2 135.6 612.3 134.3 613.3 133.6ZM228.2 86.2C230.5 87.7 232.7 89.3 235.1 90.6C238.8 92.6 242.7 94.4 246.5 96.2L246.8 96L247.1 96.1C251.7 93.8 248.8 90.9 247.8 88.2C247.3 86 247.5 82.9 246.1 81.8C242.9 79.3 239.1 77.2 235.3 75.9C222.5 71.5 209.2 71 195.9 73.1C187.9 74.3 181.5 78.4 176.1 84.1C172 88.3 171.7 93 175.5 97.1C177.8 99.6 180.9 101.4 183.6 103.5C183.9 107.3 184.3 111.1 184.6 114.8C180.6 114.8 176.6 114.8 171.2 114.8C172.7 118 173.2 121.2 175.2 123C178.7 126.2 182.7 129.9 187.1 131C206.3 136 225.4 137 243.3 125.8C250.8 121.1 252 117 247.6 109.2C247.1 107.7 246.5 106.3 246 104.8C245.5 105.3 245 105.9 244.5 106.4C243.5 105.8 242.5 105.2 241.5 104.6C241.3 104 241.2 103.1 240.7 102.8C234.4 99.5 228.1 96.3 221.8 93.1C221.1 92.7 220 92.7 219.5 92.1C218.3 90.7 217.4 89 216.3 87.5C217.9 87 219.5 86.3 221.2 86.1C223.2 85.8 225.3 85.9 227.3 85.9C227.5 86 227.9 86.1 228.2 86.2ZM114.6 83.1C121.7 83.2 128.9 83.4 136 83.2C136.9 83.2 137.8 81.1 138.7 80C138.7 78.7 138.7 77.3 138.7 76C139.6 71.9 136.4 73.2 134.6 73.1C114.9 73 95.1 73.1 75.4 73.1C74.4 73.1 73.5 73.3 72.3 73.5C72.3 93.4 72.3 113 72.3 133.1C79.1 133.1 85.5 133.1 91.9 133.1C105.7 133.1 119.6 133 133.4 133.3C137.6 133.4 139.3 131.9 138.9 127.7C138.7 126 138.9 124.2 138.9 122C136.3 122 134.5 122 132.6 122C120.6 122.2 108.7 122.5 96.7 122.5C95.2 122.5 92.5 121.1 92.4 120C91.9 116.1 92.2 112.1 92.2 108.1C95.4 107.8 97.9 107.6 100.4 107.3C112.5 107.3 124.5 107.3 136.6 107.3C136.6 104.1 136.6 101.4 136.6 98.5C128.4 98.5 120.5 98.5 112.6 98.5C107.9 98.5 103.1 98.5 98.4 98.5C96.7 98.4 95 98.3 93.3 98.3C93.3 93.3 93.4 88.3 93.4 83.3C94.4 83.2 95.4 83.1 96.4 83C100.8 83 105.2 83 109.6 83C111.2 83 112.9 83 114.6 83.1ZM282.7 110.5C283.3 116.4 284.7 121.9 290.1 125.2C295.8 128.7 301.5 132.4 308.4 132.7C317.1 133.1 325.9 133.6 334.7 133.5C341.8 133.4 348.4 131.7 354.5 127.4C361.6 122.4 366.1 116.4 365.9 107.3C365.7 97 365.9 86.7 365.8 76.4C365.8 75.3 365.4 74.2 365.2 73.1C358.2 73.1 351.5 73.1 344.4 73.1C344.4 75.1 344.4 76.7 344.4 78.4C344.4 87.9 344.5 97.3 344.4 106.8C344.3 115.9 341.2 119.9 332.3 121.3C326.9 122.1 321.2 122.1 315.7 121.3C307.2 120.1 304.3 116.2 303.8 107.7C303.7 105.9 303.5 104 303.4 102.2C303.7 101.9 303.7 101.6 303.4 101.3C303.4 92 303.4 82.7 303.4 72.3C296.4 72.8 289.6 73.3 282.7 73.8C282.1 75.3 280.9 76.8 280.9 78.4C280.7 84.4 280.8 90.5 280.8 96.5C280.8 101.7 280.8 106.8 280.8 113C282 111.6 282.3 111 282.7 110.5Z" fill="#16153A"/>
<path d="M469.3 124.6C468.8 125.1 468.1 125.5 468 126C466 132.6 461.1 132.8 455.3 132.7C450.6 132.7 448.3 130.9 445.8 127.2C438.6 116.1 430.7 105.4 422.3 93.3C422.3 107 422.3 119.5 422.3 132.4C415.1 132.4 408.7 132.4 402 132.4C402 112.6 402 93 402 72.9C410.1 72.9 418.4 72.8 426.6 73C427.7 73 429 74.2 429.7 75.3C438.1 87.3 446.3 99.4 454.6 111.4C455.1 112.1 455.3 112.9 456 114.3C464.4 101.6 472.4 89.2 480.7 77.1C482.1 75.1 485.1 73.4 487.5 73.2C494.7 72.7 502 73 509.6 73C509.6 93 509.6 112.6 509.6 132.7C502.6 132.7 495.7 132.7 488.9 132.7C488.8 130.3 488.6 127.9 488.5 125.4C488.5 115.7 488.4 105.9 488.4 96.2C488.3 95.7 488.2 95.3 488.1 94.8C488 95.2 488 95.7 487.9 96.1C481.7 105.7 475.5 115.1 469.3 124.6Z" fill="#EBEDF5"/>
<path d="M1134.6 134.1C1130.5 134.1 1126.5 134 1122.4 134C1121.4 133.6 1120.3 133.3 1119.3 132.9C1119.4 132.4 1119.5 131.9 1119.7 131.4C1122.4 131.4 1125.1 131.4 1128.5 131.4C1124.3 127.8 1123.9 127.8 1119.7 131.3C1119.5 130.9 1119.1 130.4 1119.1 130C1119.1 111.3 1119.1 92.5 1119.1 73.2C1127.5 73.2 1135.4 72.9 1143.2 73.4C1144.9 73.5 1146.8 76.1 1148.1 77.8C1156.3 89.3 1164.3 100.9 1172.8 113C1177.1 107.1 1181 101.8 1184.8 96.5C1189.5 89.8 1194 82.9 1198.8 76.2C1199.9 74.7 1202 73.1 1203.7 73C1210.6 72.5 1217.5 72.4 1224.4 72.4C1225.3 72.4 1226.9 74.2 1226.9 75.2C1227 94.2 1227 113.3 1227 132.6C1220.5 132.6 1214.1 132.6 1207.2 132.6C1207.2 119.8 1207.2 107.2 1207.2 94.6C1206.9 94.5 1206.5 94.4 1206.2 94.3C1202.2 99.9 1198.1 105.5 1194.2 111.1C1189.8 117.4 1185.6 123.9 1181.2 130.2C1180.6 131.1 1178.9 131.5 1177.7 131.6C1170.6 132.2 1164.5 132.2 1160.3 124C1155.9 115.4 1149.3 108 1143.6 100C1142.7 98.7 1141.7 97.4 1140.8 96.2C1140.5 95.4 1140.2 94.6 1139.9 93.9C1139.5 93.5 1139.1 93.1 1138.7 92.7C1138.4 93.2 1138.2 93.8 1137.9 94.3C1137.8 105.9 1137.8 117.6 1137.7 129.2C1136.3 129.5 1134.8 129.8 1133.4 130.1C1134.2 130.6 1135 131.1 1135.8 131.7C1135.8 132 1135.8 132.4 1135.8 132.7C1135.3 133.2 1135 133.7 1134.6 134.1ZM1122.2 95.1C1122.2 101.1 1122.2 107.1 1122.2 113.1C1122.7 113.1 1123.2 113.1 1123.7 113.1C1125.7 107.1 1124.1 101.1 1122.2 95.1Z" fill="#EBEDF5"/>
<path d="M782.8 93.3C782.7 97.3 785.4 97.4 788.3 97.3C796.2 97.1 803.9 97.2 811.2 101.6C815.4 104.1 818.9 106.6 821.6 110.7C824.1 114.4 826.3 119 831.7 119.2C832.5 116.4 833.3 113.9 834 111.4C834 118.1 834 124.9 834.1 131.6C832.6 135.1 831.3 138.7 829.5 142C827.5 145.7 825.8 150.2 822.6 152.6C817.8 156.2 811.9 158.4 806.3 161.1C803 162.7 799.7 164.3 796.2 165.3C793.9 165.9 791.3 165.4 788.8 165.2C783 164.9 777.1 164.9 771.3 164C764.8 163 760 159.2 755.4 154.3C750.6 149.2 744.2 145.6 738.4 141.4C733.3 137.7 728 134.3 723.1 130.3C722.1 129.5 722.6 126.8 722.4 124.9C723.7 125.6 725 126.4 726.3 127.1C726.1 131.2 728.1 131.7 731.4 130.3C736.5 131.3 741.6 132.2 746.7 133.2C747.3 133.7 747.9 134.3 748.5 134.8C748.7 135.4 748.8 136.3 749.2 136.6C755.5 141 761.5 146.2 768.4 149.3C774.6 152.1 782 153.7 788.8 153.4C797.6 153.1 805.6 149.5 813 143.7C828.2 131.8 820.3 116 809.8 109.5C804.1 106 797.8 106.7 791.7 105.9C784.7 104.9 771.5 110.7 768.2 116.8C767.8 117.6 767.9 118.8 767.8 119.7C757.8 126.7 737.4 121.5 733.9 110C733.4 108.7 733 107.5 732.5 106.2C732.6 105.5 732.6 104.9 732.7 104.2C733.2 102.8 733.7 101.3 734.4 99.9C736.2 96.7 737.3 92.2 740.1 90.6C744.3 88 749.6 86.6 754.6 86.1C760.7 85.5 766.9 86.5 773.1 86.8C776.2 88.8 779.4 90.9 782.5 92.9L782.8 92.8V93.3ZM748.5 90.7C748.6 90.5 748.7 90.2 748.8 90C748.8 89.9 748.5 89.7 748.5 89.8C748.3 89.9 748.1 90.1 747.9 90.3C748.1 90.4 748.3 90.5 748.5 90.7Z" fill="#1A163C"/>
<path d="M624.8 73C625.1 72.7 625.4 72.4 625.7 72.1C634.4 72.2 643.2 72.2 651.9 72.3C659.5 85.6 667.1 98.8 674.6 112.1C678.4 118.8 682.2 125.5 686.3 132.7C684.8 133.4 683.6 133.9 682.5 134.3C681.9 134.5 681.2 134.3 680.5 134.4C671.6 135.5 663.4 135.2 660 124.7C658.6 120.2 655.7 118.8 650.9 119C642.7 119.4 634.4 119.2 626.2 118.9C622.3 118.7 619.8 119.6 618.3 123.4C616.8 126.9 614.9 130.3 613.2 133.7H613.3C607.1 133.7 600.9 133.7 594.3 133.7C594.6 132.5 594.7 131.9 594.9 131.3C600 120.9 605 110.4 610.2 100.1C615 90.9 619.9 82 624.8 73ZM626 108.7C634.8 108.7 642.7 108.7 651.2 108.7C647.2 101 643.5 93.9 639.2 85.7C634.5 93.8 630.4 101 626 108.7Z" fill="#EAECF4"/>
<path d="M303.5 102.3C303.6 104.1 303.8 106 303.9 107.8C304.3 116.3 307.3 120.2 315.8 121.4C321.2 122.2 327 122.2 332.4 121.4C341.4 120.1 344.4 116.1 344.5 106.9C344.6 97.5 344.5 88 344.5 78.5C344.5 76.8 344.5 75.2 344.5 73.2C351.6 73.2 358.3 73.2 365.3 73.2C365.5 74.3 365.8 75.4 365.9 76.5C365.9 86.8 365.8 97.1 366 107.4C366.2 116.5 361.7 122.5 354.6 127.5C348.5 131.8 341.8 133.5 334.8 133.6C326.1 133.7 317.3 133.2 308.5 132.8C301.5 132.5 295.9 128.7 290.2 125.3C284.7 122 283.4 116.4 282.8 110.6C282.8 98.4 282.9 86.2 282.9 74C289.7 73.5 296.6 73 303.6 72.5C303.6 82.8 303.6 92.1 303.6 101.5C302.5 100.3 301.4 99.2 300 97.6C299.2 98.9 298.4 100.1 298 100.8C291.7 99.2 287.4 96.8 285.5 91.1C285.5 96.3 285.5 101.5 285.5 107.5C287.3 106.2 288.4 105.1 289.7 104.7C292.3 103.9 295.1 103.3 297.8 102.8C299.6 102.4 301.6 102.4 303.5 102.3Z" fill="#EAECF4"/>
<path d="M98.4 98.5C103.1 98.5 107.9 98.5 112.6 98.5C114 99.1 115.4 100.1 116.8 100.2C121.1 100.4 125.5 100 129.8 100.4C131.5 100.5 133.1 102 134.8 102.9C133.1 103.7 131.5 104.6 129.8 105.4C118.4 105.2 106.9 105.1 95.5 104.9C95.6 105 95.7 105.2 95.9 105.2C96 105.3 96.2 105.3 96.4 105.3C97.8 106 99.1 106.6 100.5 107.3C98 107.5 95.5 107.8 92.3 108.1C92.3 112.1 92 116.1 92.5 120C92.6 121 95.3 122.5 96.8 122.5C108.8 122.5 120.7 122.2 132.7 122C134.5 122 136.4 122 139 122C139 124.1 138.9 125.9 139 127.7C139.4 131.8 137.7 133.3 133.5 133.3C119.7 133.1 105.8 133.2 92 133.1C85.6 133.1 79.2 133.1 72.4 133.1C72.4 113 72.4 93.4 72.4 73.5C73.5 73.4 74.5 73.1 75.5 73.1C95.2 73.1 115 73 134.7 73.1C136.5 73.1 139.7 71.8 138.8 76C130.5 75.6 122.3 75.3 114 74.9C113.8 75.7 113.7 76.6 113.5 77.4C115.3 78.2 117 79.7 118.8 79.8C125.4 80.1 132.1 80 138.8 80C137.9 81.1 137 83.2 136.1 83.2C129 83.4 121.9 83.2 114.7 83.1C113 80 111.3 80 109.6 83.1C105.2 83.1 100.8 83.1 96.4 83.1C95.9 82.5 95.5 82 95 81.4C94.5 82.1 93.9 82.7 93.4 83.4C93.4 88.4 93.3 93.4 93.3 98.4C94.9 101.2 96.6 101.1 98.4 98.5Z" fill="#EEF0F6"/>
<path d="M726.2 127.2C724.9 126.5 723.6 125.7 722.3 125C714.6 119.2 710.2 111.8 710.7 102C710.8 100.4 711.4 98.8 711.7 97.2C712.1 99.4 712.4 101.7 712.9 103.9C714 108.5 715.1 113 716.3 117.6C716.9 117.6 717.5 117.5 718.1 117.5C719.3 114.3 721.8 111 721.4 108.1C720.6 102.9 718 97.9 716.1 92.8C714.7 94 713.4 95.1 712 96.2C713.9 92.8 715.2 88.8 717.8 86C725.8 77.4 735.9 73 747.6 72.1C758.4 71.3 769.4 70.6 779.6 74.9C786.4 77.8 792.3 82.7 798.4 87C799.6 87.9 799.8 90.2 800.5 91.8C798.8 92.3 797.2 93.1 795.5 93.2C791.3 93.4 787.1 93.2 782.9 93.2L782.7 92.9L782.4 93C779.3 91 776.1 88.9 773 86.9C772.1 86.3 771.3 85.3 770.3 85C760.1 82 750.1 82.5 740.6 87.6C733.6 91.4 731.5 96 732.7 104.2C732.6 104.9 732.6 105.5 732.5 106.2C731.2 105.8 730 105.3 727.5 104.5C728.5 107.4 728.9 109.4 729.9 111.1C730.1 111.4 732.5 110.4 733.9 110C737.5 121.5 757.9 126.7 767.8 119.7C768.8 119.6 769.8 119.5 770.7 119.5C770.4 120.2 770.2 121.5 769.7 121.7C765.2 123.1 760.7 124.8 756.1 125.4C752 125.9 750.9 127.1 753 130.7C753.3 131.3 753.3 132 753.5 132.6C751.2 132.8 749 132.9 746.7 133.1C741.6 132.1 736.5 131.2 731.4 130.2C729.6 129.3 727.9 128.2 726.2 127.2Z" fill="#E8EBF3"/>
<path d="M896.7 99.8C889.6 93.6 889.7 87.6 896.8 81.2C902.9 75.8 910 72.7 918.1 72.5C927.5 72.3 937 72.6 946.3 73.2C953.5 73.7 959.1 78 963.8 83.2C965 84.5 964.9 87 965.3 89C962 88.9 958.4 89.4 955.4 88.5C943.7 84.9 931.9 82.5 919.7 83.5C913 84 911.2 88.3 914.8 93.9C915.7 94.6 916.5 95.4 917.4 96.1C926.4 97.3 935.4 98.4 944.5 99.6C943.2 100.5 942 101.5 940.7 102.4C941.5 105.4 942.4 108.3 943.2 111.3C935.8 109.9 928.5 108.6 921.1 107.2C912.9 104.7 904.8 102.2 896.7 99.8ZM911.4 100.7C911.3 101 911.2 101.4 911.1 101.7C912.3 102.1 913.6 102.5 914.8 102.9C914.9 102.5 915 102.2 915.1 101.8C913.9 101.5 912.6 101.1 911.4 100.7ZM925.6 104.5C925 104.1 924.7 103.7 924.3 103.6C924.1 103.5 923.7 103.9 923.5 104C923.7 104.4 923.8 104.9 924.1 105C924.4 105.1 924.8 104.8 925.6 104.5Z" fill="#EAEDF3"/>
<path d="M247.5 109.3C251.9 117.1 250.7 121.2 243.2 125.9C225.3 137.1 206.2 136.1 187 131.1C182.6 130 178.6 126.3 175.1 123.1C173.2 121.3 172.6 118.1 171.1 114.9C176.5 114.9 180.5 114.9 184.5 114.9L184.8 115.1C189.6 119.5 195.3 121.7 201.8 121.9C203.5 122.1 205.1 122.4 206.8 122.6C210.4 122.3 214.1 122.3 217.7 121.5C222.3 120.5 226.7 118.8 231.2 117.5C231.8 117.6 232.8 117.9 232.8 117.8C233.6 115.9 235.3 113.5 234.7 112.1C233.9 110.2 231.5 108.2 229.4 107.6C224.1 106.1 218.5 105.9 214.6 101.2C213.9 100.4 212.2 100.6 210.9 100.3C210.9 99.7 210.9 99 210.9 98.4C221.6 98 231.6 100.6 241.3 104.7C242.3 105.3 243.3 105.9 244.3 106.5C245.4 107.4 246.4 108.4 247.5 109.3Z" fill="#EBEDF5"/>
<path d="M1082.8 74.9C1082.8 87.7 1083.3 100.5 1082.7 113.2C1082.5 117 1079.8 121.7 1076.8 124.2C1070.5 129.5 1063 132.8 1054.4 132.7C1051.1 132.1 1047.8 131.5 1043.2 130.6C1048 128.5 1051.2 127 1054.5 125.6C1060.1 123.2 1060.8 121.7 1058.4 118C1059.4 114.9 1061 111.8 1061.2 108.7C1061.7 100.2 1061.5 91.6 1061.6 83.1C1064.9 81 1064.9 79 1061.6 77C1061.6 76.3 1061.6 75.7 1061.6 75C1068.6 74.9 1075.7 74.9 1082.8 74.9Z" fill="#E8ECF5"/>
<path d="M834 131.5C834 124.8 834 118 833.9 111.3C833.9 107.3 833.9 103.4 833.9 99.4C833.9 97.3 833.9 95.2 833.9 93.1C833.8 87.2 833.8 81.4 833.7 75.5L833.8 75.2C834.4 74.5 834.9 73.8 835.5 73.1C836.7 73.7 837.9 74.7 839.2 74.9C842 75.2 845 75.2 847.8 74.9C852.4 74.4 853.9 75.9 853.9 80.8C853.6 98 853.8 115.2 853.8 132.5C847.2 132.1 840.6 131.8 834 131.5Z" fill="#EAECF4"/>
<path d="M247.2 96.1L246.9 96L246.6 96.2C241.9 90.4 235.1 88.2 228.2 86.2C227.9 86.1 227.6 86 227.2 86C219.3 83.1 211.2 82.2 203 84.2C200.2 84.9 197.9 87.5 195.4 89.2C193.8 90 192.3 91 190.6 91.7C184.3 94.3 183.1 96.4 184.6 103.2C184.2 103.3 183.9 103.4 183.5 103.5C180.8 101.4 177.7 99.6 175.4 97.1C171.6 93 171.9 88.3 176 84.1C181.5 78.5 187.9 74.4 195.8 73.1C209.2 71.1 222.4 71.6 235.2 75.9C239.1 77.2 242.8 79.3 246 81.8C247.4 82.9 247.2 86 247.7 88.2C247.7 90.9 247.4 93.5 247.2 96.1Z" fill="#EAEDF3"/>
<path d="M962.1 125.6C944.2 137.7 924.8 135.5 905.5 130.7C900.3 129.4 895.6 125.4 891.1 122.2C889.2 120.9 888.4 118 886.7 115.1C889.8 114.7 891.5 114.5 893.3 114.2C896.7 114.3 900.1 114.4 903.4 114.6C906 115.9 908.6 117.3 911.2 118.5C913.4 119.6 915.5 120.5 917.7 121.6C927.4 124 936.9 125.5 945.8 119C947.1 119.9 948.3 121.1 949.8 121.5C954 122.5 958.2 123.1 962.5 123.8C962.3 124.4 962.2 125 962.1 125.6Z" fill="#E8EBF3"/>
<path d="M1000.3 111.5C1000.3 99 1000.3 86.5 1000.3 73.6C1006.9 73.6 1013.7 73.6 1020.8 73.6C1021 76.1 1021.2 78.6 1021.4 81C1021.4 84.7 1021.4 88.4 1021.4 92.2C1021.4 93.9 1021.4 95.6 1021.4 97.3C1021.4 97.9 1021.5 98.4 1021.5 99C1021.3 99.2 1021.2 99.4 1021.4 99.6C1021.4 101.5 1021.4 103.4 1021.4 105.3C1021.3 106 1021.1 106.7 1021 107.5C1020.3 107.5 1019.6 107.5 1019 107.4C1012.6 105.8 1006.6 105.4 1002.8 112.3C1002.7 112.4 1001.1 111.8 1000.3 111.5Z" fill="#E3E6EF"/>
<path d="M944.4 99.5C935.4 98.3 926.4 97.2 917.3 96C916.4 95.3 915.6 94.5 914.7 93.8C911.1 88.2 912.8 83.9 919.6 83.4C931.8 82.4 943.6 84.8 955.3 88.4C958.4 89.4 961.9 88.8 965.2 88.9C964.9 89.7 964.8 90.8 964.3 91.1C962.1 92.2 959.1 93 960.3 96.3C961.6 99.9 962.7 104.1 965.3 106.5C969.4 110.4 969.4 120.3 964.4 123.6L964.1 123.3C964.2 122.7 964.4 122.1 964.5 121.5C964.7 120.8 965 120.1 965.2 119.4C965.2 117.6 965.1 115.9 965.1 114.1C964.3 112.2 963.8 109.9 962.5 108.4C957.9 103 951.4 100.6 944.4 99.5Z" fill="#18163F"/>
<path d="M195.5 89.1C198 87.4 200.3 84.8 203.1 84.1C211.2 82.1 219.4 83 227.3 85.9C225.3 86 223.2 85.8 221.2 86.1C219.5 86.3 217.9 87 216.3 87.5C217.3 89.1 218.3 90.7 219.5 92.1C220 92.7 221 92.7 221.8 93.1C228.1 96.3 234.4 99.5 240.7 102.8C241.1 103 241.2 104 241.5 104.6C231.8 100.5 221.8 97.9 211.1 98.3C210.5 98.2 209.8 98.1 209.2 98C207.5 97.6 205.7 97.2 204 96.8C199.6 95.8 196.5 93.5 195.5 89.1Z" fill="#201B42"/>
<path d="M1021.4 92.2C1021.4 88.5 1021.4 84.8 1021.4 81C1022.9 81.8 1024.9 82.2 1025.9 83.4C1033.6 92.4 1041.2 101.5 1048.5 110.8C1050.7 113.5 1051.9 117 1053.6 120.1C1052.7 120.3 1051.8 120.6 1050.9 120.8C1049.4 120.4 1047.8 120 1046.3 119.6C1045.7 119.6 1045.1 119.6 1044.5 119.5C1044.1 119.1 1043.8 118.7 1043.4 118.3C1042.7 116.8 1042.1 115.2 1041.1 113.9C1036.3 107.9 1031.5 101.9 1026.6 96.1C1025.3 94.5 1023.2 93.5 1021.4 92.2Z" fill="#23163D"/>
<path d="M624.8 73C620 82 615 91 610.4 100.1C605.1 110.4 600.2 120.9 595.1 131.3C594.8 131.9 594.8 132.5 594.5 133.7C601.1 133.7 607.3 133.7 613.5 133.7C612.4 134.4 611.3 135.7 610.2 135.8C606.5 136.1 602.8 136 599.1 135.9C593.7 135.8 591.8 132.8 594.1 127.9C597.4 120.9 600.8 114 604.4 106.7C600.7 104.7 599.2 101.5 601.4 97.8C602 96.8 605 97.2 606.9 97C607.3 97.5 607.8 98 608.2 98.5C611.9 91.8 615.5 85 619.5 78.4C620.5 76.2 622.9 74.7 624.8 73Z" fill="#201B42"/>
<path d="M1054.5 125.6C1051.3 127 1048 128.5 1043.2 130.6C1047.9 131.5 1051.1 132.1 1054.4 132.7C1052.1 132.9 1049.8 133.2 1047.6 133.4C1039.1 132.8 1030.5 132.1 1022 131.5C1026.6 130.3 1028.5 128 1025.4 123.5C1025.1 123 1025.3 122.2 1025.2 121.6C1032.4 124.9 1039.5 127.1 1047.5 123.9C1049.3 123.2 1052.2 125 1054.5 125.6Z" fill="#E3BEFC"/>
<path d="M488.4 96.3C488.4 106 488.5 115.8 488.5 125.5C476.1 126.4 471.8 133.3 477.7 142.7C473.6 143.6 471.9 141.4 471.6 137.8C471 130.4 474.8 124.8 480.8 121.7C485.8 119.2 487.2 116.1 486.7 111C486.4 108.1 486.6 105.1 486.6 102.2C486.2 102.1 485.8 102 485.4 101.8C481.6 108 477.8 114.2 473.8 120.3C472.7 122 470.7 123.1 469.2 124.4C475.4 115 481.6 105.5 487.8 96.1L488 96.4L488.4 96.3Z" fill="#080730"/>
<path d="M477.7 142.7C471.7 133.3 476 126.4 488.5 125.5C488.6 127.9 488.8 130.3 488.9 132.8C489.7 134 490.6 135.2 491.2 136.4C492.7 139.4 491.1 141.9 487.6 141.7C485.3 138.9 483 136.1 480.1 132.5C479.7 133.2 477.8 134.9 478 136.3C478.3 138.1 480 139.9 481.5 141.1C482.5 141.9 484.3 141.8 485.8 142.1C483.1 142.3 480.4 142.5 477.7 142.7Z" fill="#622C88"/>
<path d="M1000.3 111.5C1001.2 111.8 1002.7 112.4 1002.8 112.2C1006.6 105.3 1012.6 105.7 1019 107.3C1019.6 107.5 1020.3 107.4 1021 107.4C1022.1 110.4 1023.2 113.4 1024.3 116.4C1024.3 117 1024.4 117.7 1024.4 118.3C1021.5 116.7 1018.7 115.1 1015.8 113.6C1014.3 112.8 1012.5 111.3 1011.2 111.6C1009.9 111.9 1008.9 114 1008 115.4C1007.4 116.4 1007.3 117.6 1006.9 118.7C1006 118.7 1005 118.6 1004.1 118.6C1003.7 118.7 1003.2 118.8 1002.8 118.8C1002 116.5 1001.1 114 1000.3 111.5Z" fill="#EDD1F2"/>
<path d="M853.8 132.4C853.8 115.2 853.6 98 853.9 80.7C854 75.9 852.4 74.4 847.8 74.8C845 75.1 842 75 839.2 74.8C837.9 74.7 836.8 73.7 835.5 73C842 73 848.6 73 855.7 73C855.7 91.7 855.7 110.1 855.7 128.6C855.3 129.8 855 131.1 854.6 132.3L854.2 132.5L853.8 132.4Z" fill="#F6F8FB"/>
<path d="M613.3 133.6C615 130.2 617 126.8 618.4 123.3C619.9 119.6 622.4 118.7 626.3 118.8C634.5 119.2 642.8 119.4 651 118.9C655.8 118.6 658.6 120.1 660.1 124.6C652.8 120.6 645.1 120.1 636.9 121.4C633.6 121.9 630.2 121.8 626.8 121.5C622.8 121.1 620.7 122.7 619 126.3C617.8 129 618 133.4 613.3 133.6Z" fill="#201B42"/>
<path d="M711.9 96.2C713.2 95.1 714.6 93.9 716 92.8C717.9 97.9 720.5 102.8 721.3 108.1C721.8 111 719.2 114.4 718 117.5C717.4 117.5 716.8 117.6 716.2 117.6C715.1 113 713.9 108.5 712.8 103.9C712.3 101.7 712 99.4 711.6 97.2C711.8 96.8 711.8 96.5 711.9 96.2Z" fill="#E6E8F1"/>
<path d="M896.7 99.8C904.8 102.3 912.9 104.8 921 107.2C920.5 107.6 920 108.1 919.6 108.5C916 107.9 912.5 107.3 908.9 106.7C905.5 106.1 902.5 106.1 901.5 110.4C898.8 110.1 896.1 109.8 893.4 109.4C890.4 104.8 894.9 102.7 896.7 99.8Z" fill="#34183E"/>
<path d="M129.8 105.3C131.5 104.5 133.1 103.6 134.8 102.8C133.1 101.9 131.5 100.5 129.8 100.3C125.5 99.9 121.1 100.3 116.8 100.1C115.4 100 114 99 112.6 98.4C120.5 98.4 128.4 98.4 136.6 98.4C136.6 101.3 136.6 104 136.6 107.2C124.5 107.2 112.5 107.2 100.4 107.2C99 106.5 97.7 105.9 96.3 105.2C107.5 105.3 118.7 105.3 129.8 105.3Z" fill="#F6F8FB"/>
<path d="M1004.1 118.8C1005 118.8 1006 118.9 1006.9 118.9C1008.5 120.4 1009.9 122 1011.6 123.4C1013.1 124.6 1016.3 125.6 1016.3 126.6C1016.1 131.2 1019.3 131 1022.1 131.5C1030.6 132.2 1039.2 132.8 1047.7 133.4C1033.1 138.4 1011.4 132.1 1003.7 120.7C1003.8 120.1 1003.9 119.4 1004.1 118.8Z" fill="#D945F7"/>
<path d="M303.5 102.3C301.6 102.5 299.6 102.5 297.7 102.8C295 103.3 292.2 103.9 289.6 104.7C288.3 105.1 287.2 106.2 285.4 107.5C285.4 101.5 285.4 96.3 285.4 91.1C287.2 96.8 291.6 99.2 297.9 100.8C298.4 100.1 299.1 98.8 299.9 97.6C301.3 99.1 302.4 100.3 303.5 101.5C303.8 101.7 303.8 102 303.5 102.3Z" fill="#E3E6EF"/>
<path d="M138.7 80C132 80 125.4 80.1 118.7 79.8C116.9 79.7 115.1 78.2 113.4 77.4C113.6 76.6 113.7 75.7 113.9 74.9C122.2 75.3 130.4 75.6 138.7 76C138.7 77.3 138.7 78.7 138.7 80Z" fill="#F6F8FB"/>
<path d="M1139.7 93.9C1140 94.7 1140.3 95.5 1140.6 96.2C1140.3 97.8 1139.8 99.4 1139.8 101C1139.7 111.9 1139.7 122.8 1139.7 133.7C1138.9 134 1138.2 134.3 1137.4 134.6C1137.4 133.9 1137.5 133.1 1137.5 132.4V132C1137.5 131.1 1137.5 130.2 1137.5 129.3C1137.6 117.7 1137.6 106 1137.7 94.4C1138.4 94.2 1139.1 94.1 1139.7 93.9Z" fill="#241A52"/>
<path d="M1054.5 125.6C1052.1 125 1049.3 123.2 1047.5 123.9C1039.5 127.1 1032.4 124.9 1025.2 121.6C1025.2 120.9 1025.3 120.1 1025.3 119.4C1032.7 122.8 1040.2 123.9 1048.2 121.8C1049.1 121.5 1050 121.2 1051 120.9C1051.9 120.7 1052.8 120.4 1053.7 120.2C1055.2 119.5 1056.8 118.8 1058.3 118.1C1060.9 121.7 1060.1 123.2 1054.5 125.6Z" fill="#EDD1F2"/>
<path d="M183.6 103.4C184 103.3 184.3 103.2 184.7 103.1C185.7 102.9 186.6 102.7 187.6 102.5C188.3 103.2 188.9 103.8 189.6 104.5C191.3 105.5 193 106.4 194.8 107.4C196.5 108.3 198.2 109.3 199.9 110.3C199.1 110.7 198.4 111 197.6 111.4C193.4 112.6 189.2 113.9 185 115.1L184.7 114.9C184.2 111 183.9 107.2 183.6 103.4Z" fill="#241A52"/>
<path d="M282.8 73.9C282.8 86.1 282.7 98.3 282.7 110.5C282.3 111 281.9 111.6 280.9 113.1C280.9 107 280.9 101.8 280.9 96.6C280.9 90.6 280.8 84.5 281 78.5C281.1 77 282.2 75.5 282.8 73.9Z" fill="#080730"/>
<path d="M485.8 142.1C484.3 141.8 482.5 142 481.5 141.1C480 139.9 478.2 138 478 136.3C477.8 134.9 479.7 133.2 480.1 132.5C483 136 485.3 138.8 487.6 141.7C487 141.8 486.4 141.9 485.8 142.1Z" fill="#D945F7"/>
<path d="M651.9 72.2C643.2 72.1 634.4 72.1 625.7 72C626.8 71.3 627.9 70 629.1 69.9C635.6 69.7 642.2 69.7 648.7 69.9C649.8 70 650.9 71.4 651.9 72.2Z" fill="#080730"/>
<path d="M893.3 109.4C896 109.7 898.7 110 901.4 110.4C903.1 111.4 904.8 112.4 906.5 113.4C905.4 113.8 904.4 114.2 903.3 114.6C899.9 114.5 896.5 114.4 893.2 114.2C893.3 112.6 893.3 111 893.3 109.4Z" fill="#241A52"/>
<path d="M1139.7 133.7C1139.7 122.8 1139.7 111.9 1139.8 101C1139.8 99.4 1140.3 97.8 1140.6 96.2C1141.5 97.5 1142.5 98.8 1143.4 100C1142.5 101.5 1140.9 103 1140.8 104.6C1140.5 112.5 1140.7 120.4 1140.6 128.4C1140.7 130.2 1140.1 132 1139.7 133.7Z" fill="#080730"/>
<path d="M228.2 86.2C235 88.2 241.8 90.3 246.6 96.2C242.8 94.3 238.9 92.6 235.2 90.6C232.7 89.3 230.5 87.7 228.2 86.2Z" fill="#201B42"/>
<path d="M1082.8 74.9C1075.7 74.9 1068.6 74.9 1061.5 74.9C1062 74.3 1062.6 73.1 1063.1 73.1C1069.1 73 1075.1 73 1081.2 73.1C1081.7 73.2 1082.3 74.3 1082.8 74.9Z" fill="#F6F8FB"/>
<path d="M1119.7 131.3C1123.9 127.8 1124.3 127.8 1128.5 131.4C1125.1 131.4 1122.4 131.4 1119.7 131.4C1119.7 131.4 1119.7 131.3 1119.7 131.3Z" fill="#E8EBF3"/>
<path d="M247.2 96.1C247.4 93.5 247.7 90.8 247.9 88.2C248.9 91 251.8 93.9 247.2 96.1Z" fill="#201B42"/>
<path d="M1061.5 77C1064.8 79 1064.8 81.1 1061.5 83.1C1061.5 81 1061.5 79 1061.5 77Z" fill="#F6F8FB"/>
<path d="M247.5 109.3C246.5 108.4 245.4 107.5 244.4 106.5C244.9 106 245.4 105.4 245.9 104.9C246.4 106.3 246.9 107.8 247.5 109.3Z" fill="#201B42"/>
<path d="M98.4 98.5C96.6 101.1 94.9 101.2 93.3 98.3C95 98.4 96.7 98.5 98.4 98.5Z" fill="#F6F8FB"/>
<path d="M109.5 83C111.2 79.9 112.9 79.9 114.6 83C112.9 83 111.2 83 109.5 83Z" fill="#F6F8FB"/>
<path d="M854.7 132.4C855.1 131.2 855.4 129.9 855.8 128.7C855.4 129.9 855.1 131.2 854.7 132.4Z" fill="#EAECF4"/>
<path d="M93.4 83.3C93.9 82.6 94.5 82 95 81.3C95.5 81.9 95.9 82.4 96.4 83C95.4 83.1 94.4 83.2 93.4 83.3Z" fill="#F6F8FB"/>
<path d="M1137.6 132.4C1137.6 133.1 1137.5 133.9 1137.5 134.6C1136.6 134.4 1135.6 134.3 1134.7 134.1C1135 133.6 1135.4 133.2 1135.7 132.7C1136.3 132.6 1136.9 132.5 1137.6 132.4Z" fill="#E8EBF3"/>
<path d="M962.1 125.6C962.2 125 962.3 124.4 962.5 123.8C963.1 123.7 963.7 123.6 964.2 123.4L964.5 123.7C963.6 124.3 962.9 124.9 962.1 125.6Z" fill="#18163F"/>
<path d="M1119.3 132.9C1120.3 133.3 1121.4 133.6 1122.4 134C1121.4 133.6 1120.4 133.3 1119.3 132.9Z" fill="#E8EBF3"/>
<path d="M1004.1 118.8C1004 119.5 1003.8 120.1 1003.7 120.8C1003.4 120.2 1003.1 119.7 1002.9 119.1C1003.2 118.9 1003.6 118.8 1004.1 118.8Z" fill="#F77EFC"/>
<path d="M833.7 75.5C833.6 75.4 833.5 75.2 833.4 75.1C833.5 75.1 833.7 75.2 833.8 75.2C833.9 75.2 833.7 75.5 833.7 75.5Z" fill="#080730"/>
<path d="M488.4 96.3L488.1 96.5L487.9 96.2C488 95.8 488 95.3 488.1 94.9C488.2 95.3 488.3 95.8 488.4 96.3Z" fill="#622C88"/>
<path d="M1122.2 95.1C1124.1 101 1125.7 107 1123.7 113C1123.2 113 1122.7 113 1122.2 113C1122.2 107.1 1122.2 101.1 1122.2 95.1Z" fill="#E8EBF3"/>
<path d="M1137.6 129.3C1137.6 130.2 1137.6 131.1 1137.6 132C1137 131.9 1136.4 131.8 1135.7 131.7C1134.9 131.2 1134.1 130.7 1133.3 130.1C1134.7 129.9 1136.1 129.6 1137.6 129.3Z" fill="#E8EBF3"/>
<path d="M1139.7 93.9C1139 94 1138.4 94.2 1137.7 94.3C1138 93.8 1138.2 93.2 1138.5 92.7C1138.9 93.1 1139.3 93.5 1139.7 93.9Z" fill="#E8EBF3"/>
<path d="M1135.7 131.7C1136.3 131.8 1136.9 131.9 1137.6 132V132.4C1137 132.5 1136.4 132.6 1135.7 132.7C1135.7 132.4 1135.7 132.1 1135.7 131.7Z" fill="#F6F8FB"/>
<path d="M770.6 119.6C769.6 119.7 768.6 119.8 767.7 119.8C767.8 118.8 767.7 117.7 768.1 116.9C771.4 110.8 784.6 105.1 791.6 106C797.7 106.8 804 106.1 809.7 109.6C820.2 116.1 828.1 131.9 812.9 143.8C805.4 149.6 797.5 153.2 788.7 153.5C781.9 153.7 774.6 152.1 768.3 149.4C761.4 146.3 755.4 141.1 749.1 136.7C748.7 136.4 748.6 135.5 748.4 134.9C750.1 134.5 751.7 134.1 753.4 133.7C755.5 133.7 757.5 133.7 759.6 133.7C760 135.1 760 137.2 760.9 137.7C765.2 140 769.5 142.4 774.1 143.8C783.8 146.7 793.3 144.8 802.1 140.5C806.7 138.2 811.4 134.5 814 130.2C818.2 123.4 813 115.4 803.1 111.5C801.2 111.4 799.2 111.3 797.3 111.2C791.7 111 786 110.6 780.4 110.8C779.1 110.9 778 113.2 776.8 114.6C775.9 115.3 775.1 116.1 774.2 116.8C773.7 117.1 773.2 117.3 772.7 117.6C772 118.2 771.3 118.9 770.6 119.6Z" fill="#23163D"/>
<path d="M732.5 104.4C731.3 96.1 733.4 91.6 740.4 87.8C749.9 82.6 759.9 82.2 770.1 85.2C771.1 85.5 771.9 86.4 772.8 87.1C766.6 86.8 760.4 85.9 754.3 86.4C749.3 86.9 744 88.3 739.8 90.9C737 92.6 735.9 97 734.1 100.2C733.5 101.4 733.1 102.9 732.5 104.4Z" fill="#201B42"/>
<path d="M733.8 110.2C732.4 110.6 730 111.6 729.8 111.3C728.8 109.7 728.4 107.7 727.4 104.7C729.9 105.6 731.2 106 732.4 106.4C732.8 107.6 733.3 108.9 733.8 110.2Z" fill="#E6E8F1"/>
<path d="M772.8 86.9C775.9 88.9 779.1 91 782.2 93C779.1 91 776 89 772.8 86.9Z" fill="#201B42"/>
<path d="M726.2 127.2C727.9 128.3 729.6 129.3 731.3 130.4C728 131.8 726 131.2 726.2 127.2Z" fill="#16153A"/>
<path d="M753.3 133.6C751.6 134 750 134.4 748.3 134.8C747.7 134.3 747.1 133.8 746.5 133.2C748.8 133 751 132.9 753.3 132.7C753.6 133.1 753.6 133.4 753.3 133.6Z" fill="#972E5E"/>
<path d="M748.5 90.7C748.3 90.5 748.1 90.4 747.9 90.2C748.1 90 748.3 89.8 748.5 89.7C748.6 89.7 748.8 89.9 748.8 89.9C748.7 90.2 748.6 90.4 748.5 90.7Z" fill="#201B42"/>
<path d="M626 108.7C630.4 101 634.6 93.8 639.2 85.7C643.4 93.8 647.2 101 651.2 108.7C642.7 108.7 634.7 108.7 626 108.7Z" fill="#201B42"/>
<path d="M129.8 105.3C118.7 105.3 107.5 105.3 96.4 105.3C96.2 105.3 96.1 105.2 95.9 105.2C95.8 105.1 95.7 105 95.5 104.9C106.9 105 118.4 105.2 129.8 105.3Z" fill="#E6E8F1"/>
<path d="M753.3 133.6C753.6 133.3 753.6 133 753.3 132.7C753.1 132 753.1 131.3 752.8 130.8C750.7 127.1 751.9 126 755.9 125.5C760.5 124.9 765 123.2 769.5 121.8C770 121.6 770.2 120.4 770.5 119.6C771.2 118.9 771.9 118.2 772.5 117.6C773 117.3 773.5 117.1 774 116.8C774.9 116.1 775.7 115.3 776.6 114.6C782.4 114.2 788.2 113.8 794 113.4C792.9 116.9 791.7 120.4 790.6 123.8L790.4 123.9C788 125.1 785.6 126.4 783.3 127.6C782.5 127.9 781.7 128.3 780.9 128.6C779.5 129.4 778.1 130.1 776.7 130.9C774.7 131.5 772.7 132.1 770.6 132.7C769.6 132.9 768.5 133.1 767.5 133.2C764.8 133.3 762.1 133.5 759.5 133.6C757.5 133.6 755.4 133.6 753.3 133.6Z" fill="#EFE7F8"/>
<path d="M944.4 99.5C951.4 100.6 957.9 103 962.6 108.5C963.9 110 964.3 112.3 965.2 114.2C962.7 116 962 117.8 965.3 119.5C965.1 120.2 964.8 120.9 964.6 121.6C963.9 122.3 963.2 123 962.4 123.7C958.2 123 953.9 122.4 949.7 121.4C948.3 121.1 947 119.8 945.7 118.9C944.8 116.3 943.9 113.8 943 111.2C942.2 108.2 941.3 105.3 940.5 102.3C941.9 101.4 943.1 100.5 944.4 99.5Z" fill="#E7EAEF"/>
<path d="M943.1 111.3C944 113.9 944.9 116.4 945.8 119C937 125.5 927.4 124 917.7 121.6C918 118.9 918.3 116.2 918.6 113.5L918.7 113.4C920 112.6 921.2 111.9 922.5 111.1C921.5 110.2 920.6 109.3 919.6 108.4H919.5C920 108 920.5 107.5 920.9 107.1C928.4 108.6 935.7 109.9 943.1 111.3Z" fill="#201B42"/>
<path d="M911.4 100.7C912.6 101.1 913.9 101.5 915.1 101.8C915 102.2 914.9 102.5 914.8 102.9C913.6 102.5 912.3 102.1 911.1 101.7C911.2 101.4 911.3 101 911.4 100.7Z" fill="#E7EAEF"/>
<path d="M925.6 104.5C924.9 104.8 924.4 105.1 924.1 105C923.8 104.9 923.7 104.3 923.5 104C923.8 103.9 924.1 103.5 924.3 103.6C924.6 103.7 925 104.1 925.6 104.5Z" fill="#E7EAEF"/>
<path d="M914.8 93.8C915.7 94.5 916.5 95.3 917.4 96C916.5 95.3 915.6 94.5 914.8 93.8Z" fill="#E7EAEF"/>
<path d="M231.2 117.4C226.7 118.8 222.3 120.4 217.7 121.4C214.2 122.2 210.5 122.1 206.8 122.5C206.8 121.9 206.8 121.2 206.9 120.6C210.8 120.6 214.5 119.9 214.5 115C214.5 112.8 213.4 110.5 212.8 108.3C212.9 108 213 107.8 212.9 107.5C215.6 108.3 218.6 108.6 221 109.9C224.6 112 227.8 114.9 231.2 117.4Z" fill="#201B42"/>
<path d="M231.2 117.4C227.8 114.8 224.6 112 221 109.9C218.6 108.5 215.7 108.2 212.9 107.5C212.3 107.1 211.6 106.8 211 106.4C211 106.1 211 105.8 210.9 105.5C210.9 103.8 210.9 102.1 210.9 100.4C212.2 100.7 213.9 100.5 214.6 101.3C218.5 106 224.1 106.2 229.4 107.7C231.5 108.3 233.8 110.2 234.7 112.2C235.3 113.6 233.6 116 232.8 117.9C232.8 117.9 231.7 117.6 231.2 117.4Z" fill="#E3E6EF"/>
<path d="M210.9 100.3C210.9 102 210.9 103.7 210.9 105.4C204.2 102.5 196.7 100.8 191.9 94.4C191.5 93.8 189.6 93.7 188.8 94.2C187.9 94.7 186.9 96 186.8 97.1C186.7 98.9 187.3 100.7 187.5 102.5C186.5 102.7 185.6 102.9 184.6 103.1C183.1 96.2 184.3 94.1 190.6 91.6C192.3 90.9 193.8 89.9 195.4 89.1C196.5 93.5 199.5 95.8 203.8 96.8C204.8 100.4 206.8 99.7 209 98C209.6 98.1 210.3 98.2 210.9 98.3C210.9 99 210.9 99.6 210.9 100.3Z" fill="#EDD1F2"/>
<path d="M184.8 115C189 113.8 193.2 112.5 197.4 111.3C197.1 117.9 203.5 117.1 206.7 119.8C206.8 120.1 206.8 120.3 206.8 120.6C205.1 121 203.4 121.4 201.7 121.8C195.3 121.6 189.6 119.4 184.8 115Z" fill="#2A3171"/>
<path d="M201.8 121.8C203.5 121.4 205.2 121 206.9 120.6C206.9 121.2 206.9 121.9 206.8 122.5C205.2 122.3 203.5 122.1 201.8 121.8Z" fill="#53254E"/>
<path d="M918.6 113.5C918.3 116.2 918 118.9 917.7 121.6C915.5 120.6 913.3 119.6 911.2 118.5C908.6 117.2 906 115.9 903.4 114.6C904.5 114.2 905.5 113.8 906.6 113.4C910.6 113.4 914.6 113.4 918.6 113.5Z" fill="#2A3171"/>
<path d="M1024.3 116.5C1023.2 113.5 1022.1 110.5 1021 107.5C1021.1 106.8 1021.3 106.1 1021.4 105.3C1024.7 107.8 1027.9 110.3 1031.3 112.7C1032.8 113.7 1034.6 114.4 1036.3 115.2C1038.7 116.2 1041.1 117.3 1043.5 118.3C1043.9 118.7 1044.2 119.1 1044.6 119.5C1043.2 119.9 1041.7 120.8 1040.4 120.5C1035 119.4 1029.6 117.8 1024.3 116.5Z" fill="#A40A48"/>
<path d="M1043.5 118.3C1041.1 117.3 1038.7 116.2 1036.3 115.2C1032.2 110 1028.1 104.8 1023.8 99.7C1023.5 99.3 1022.2 99.6 1021.4 99.6C1021.2 99.4 1021.2 99.2 1021.5 99C1021.5 98.4 1021.4 97.9 1021.4 97.3C1021.4 95.6 1021.4 93.9 1021.4 92.2C1023.2 93.5 1025.2 94.5 1026.6 96.2C1031.6 102 1036.4 108 1041.1 114C1042.2 115.2 1042.7 116.8 1043.5 118.3Z" fill="#34183E"/>
<path d="M1021.4 99.6C1022.2 99.6 1023.5 99.3 1023.8 99.7C1028 104.8 1032.1 110 1036.3 115.2C1034.6 114.4 1032.8 113.8 1031.3 112.7C1027.9 110.3 1024.7 107.8 1021.4 105.3C1021.4 103.4 1021.4 101.5 1021.4 99.6Z" fill="#53254E"/>
<path d="M1021.4 97.3C1021.4 97.9 1021.5 98.4 1021.5 99C1021.4 98.4 1021.4 97.8 1021.4 97.3Z" fill="#53254E"/>
<path d="M965.3 119.6C962 117.9 962.7 116.1 965.2 114.3C965.2 116 965.3 117.8 965.3 119.6Z" fill="#E8EBF3"/>
<path d="M962.4 123.8C963.1 123.1 963.8 122.4 964.6 121.7C964.5 122.3 964.3 122.9 964.2 123.5C963.6 123.6 963 123.7 962.4 123.8Z" fill="#E8EBF3"/>
<path d="M209 98C206.8 99.7 204.8 100.3 203.8 96.8C205.6 97.2 207.3 97.6 209 98Z" fill="#EBEDF5"/>
<path d="M1024.3 116.5C1029.7 117.9 1035 119.4 1040.4 120.6C1041.7 120.9 1043.2 120 1044.6 119.6C1045.2 119.6 1045.8 119.6 1046.4 119.7C1047 120.4 1047.6 121.1 1048.2 121.8C1040.3 123.9 1032.7 122.8 1025.3 119.4L1025.2 119.5C1024.8 119.2 1024.5 118.8 1024.1 118.5L1024.2 118.4C1024.3 117.7 1024.3 117.1 1024.3 116.5Z" fill="#972E5E"/>
<path d="M1048.2 121.7C1047.6 121 1047 120.3 1046.4 119.6C1047.9 120 1049.5 120.4 1051 120.8C1050.1 121.1 1049.1 121.4 1048.2 121.7Z" fill="#34183E"/>
<path d="M1025.4 119.4C1025.4 120.1 1025.3 120.9 1025.3 121.6C1025.3 122.2 1025.2 123.1 1025.5 123.5C1028.6 128 1026.7 130.3 1022.1 131.5C1019.3 131 1016.2 131.2 1016.3 126.6C1016.3 125.6 1013.1 124.6 1011.6 123.4C1009.9 122 1008.5 120.4 1006.9 118.9C1007.2 117.8 1007.4 116.5 1008 115.6C1008.9 114.2 1009.9 112.1 1011.2 111.8C1012.5 111.5 1014.3 113 1015.8 113.8C1018.7 115.3 1021.5 116.9 1024.4 118.5L1024.3 118.6C1024.7 118.9 1025 119.3 1025.4 119.6C1025.3 119.5 1025.4 119.4 1025.4 119.4Z" fill="#F77EFC"/>
<path d="M918.6 113.5C914.6 113.4 910.6 113.4 906.6 113.3C904.9 112.3 903.2 111.3 901.5 110.3C902.5 106.1 905.5 106.1 908.9 106.6C912.5 107.2 916 107.8 919.6 108.4H919.7C919.3 110.1 919 111.8 918.6 113.5C918.6 113.5 918.7 113.4 918.6 113.5Z" fill="#53254E"/>
<path d="M187.6 102.5C187.3 100.7 186.7 98.9 186.9 97.1C187 96.1 188 94.8 188.9 94.2C189.7 93.8 191.5 93.8 192 94.4C196.8 100.7 204.2 102.4 211 105.4C211.1 105.7 211.1 106 211.1 106.3C203.9 105.7 196.8 105.1 189.6 104.5C188.9 103.8 188.2 103.2 187.6 102.5Z" fill="#F882DD"/>
<path d="M189.5 104.5C196.7 105.1 203.8 105.7 211 106.3C211.7 106.7 212.3 107 212.9 107.4C212.9 107.7 212.9 108 212.8 108.2C211.8 110.6 210.9 113 209.9 115.4C208.2 114.5 206.4 113.6 204.7 112.8C203 112 201.4 111.1 199.7 110.2C198 109.2 196.3 108.3 194.6 107.3C193 106.4 191.2 105.5 189.5 104.5Z" fill="#972E5E"/>
<path d="M199.8 110.2C201.5 111.1 203.1 111.9 204.8 112.8C206.5 113.7 208.3 114.6 210 115.4C208.9 116.9 207.9 118.3 206.8 119.8C203.6 117.1 197.2 117.9 197.5 111.3C198.2 110.9 199 110.6 199.8 110.2Z" fill="#622C88"/>
<path d="M759.5 133.6C762.2 133.5 764.9 133.3 767.5 133.2C768.8 134.5 770 136.6 771.6 137.1C783.5 140.7 794.5 137.2 804.8 131.6C807.1 130.4 809 126.8 809.3 124.1C809.6 119.9 808.2 115.7 803 114.6C803 114.3 802.9 114 802.8 113.8C802.9 113 803 112.3 803 111.5C812.9 115.4 818.1 123.5 813.9 130.2C811.3 134.5 806.6 138.2 802 140.5C793.3 144.8 783.7 146.6 774 143.8C769.4 142.4 765 140 760.8 137.7C759.9 137.2 759.9 135 759.5 133.6Z" fill="#34183E"/>
<path d="M794.1 113.4C788.3 113.8 782.5 114.2 776.7 114.6C777.9 113.3 779.1 110.9 780.3 110.8C785.9 110.6 791.5 111 797.2 111.2C797.1 111.8 797.1 112.4 797 113C796.1 113.1 795.1 113.2 794.1 113.4Z" fill="#2A3171"/>
<path d="M797.1 113C797.2 112.4 797.2 111.8 797.3 111.2C799.2 111.3 801.2 111.4 803.1 111.5C803 112.3 802.9 113 802.9 113.8C802.1 113.7 801.4 113.6 800.6 113.5C799.4 113.3 798.2 113.1 797.1 113Z" fill="#53254E"/>
<path d="M774.2 116.8C773.7 117.1 773.2 117.3 772.7 117.6C773.2 117.3 773.7 117 774.2 116.8Z" fill="#2A3171"/>
<path d="M803 114.6C808.2 115.7 809.6 119.9 809.3 124.1C809.1 126.8 807.1 130.4 804.8 131.6C794.5 137.2 783.5 140.6 771.6 137.1C770 136.6 768.9 134.6 767.5 133.2C768.5 133 769.6 132.8 770.6 132.7C782.5 135.2 793.4 132.2 803.5 126C804.4 125.4 804 122.5 803.9 120.7C803.8 118.6 803.3 116.6 803 114.6Z" fill="#53254E"/>
<path d="M803 114.6C803.3 116.6 803.8 118.6 804 120.7C804.1 122.5 804.5 125.4 803.6 126C793.5 132.2 782.6 135.2 770.7 132.7C772.7 132.1 774.7 131.5 776.8 130.9C778.2 130.1 779.6 129.4 781 128.6C781.8 128.3 782.6 127.9 783.4 127.6C785.8 126.4 788.2 125.1 790.5 123.9L790.7 123.8C795.4 121.7 799.6 119.1 800.5 113.5C801.3 113.6 802 113.7 802.8 113.8C802.9 114 802.9 114.3 803 114.6Z" fill="#972E5E"/>
<path d="M800.5 113.5C799.6 119.2 795.4 121.7 790.7 123.8C791.8 120.3 793 116.8 794.1 113.4C795.1 113.3 796 113.1 797 113C798.2 113.1 799.4 113.3 800.5 113.5Z" fill="#F882DD"/>
<path d="M790.5 123.9C788.1 125.1 785.7 126.4 783.4 127.6C785.8 126.4 788.2 125.1 790.5 123.9Z" fill="#F882DD"/>
<path d="M780.9 128.6C779.5 129.4 778.1 130.1 776.7 130.9C778.2 130.1 779.6 129.4 780.9 128.6Z" fill="#F882DD"/>
<path d="M918.7 113.4C919 111.8 919.3 110.1 919.6 108.5C920.6 109.4 921.5 110.3 922.5 111.2C921.3 111.9 920 112.7 918.7 113.4Z" fill="#34183E"/>
<path d="M206.8 119.8C207.9 118.3 208.9 116.9 210 115.4C211 113 211.9 110.6 212.9 108.2C213.5 110.4 214.6 112.7 214.6 114.9C214.6 119.8 210.9 120.5 207 120.5C206.9 120.3 206.8 120.1 206.8 119.8Z" fill="#53254E"/>
<path d="M1025.3 119.5C1024.9 119.2 1024.6 118.8 1024.2 118.5C1024.6 118.8 1024.9 119.1 1025.3 119.5Z" fill="#EDD1F2"/>
</svg>
